<svg width="150" height="26" viewBox="0 0 150 26" fill="none" xmlns="http://www.w3.org/2000/svg">
<path d="M14.704 25H7.92C5.36 25 3.504 24.5093 2.352 23.528C1.22133 22.5253 0.656 20.904 0.656 18.664V2.216H5.104V18.664C5.104 19.56 5.30667 20.1787 5.712 20.52C6.11733 20.8613 6.85333 21.032 7.92 21.032H14.704V25ZM27.8178 16.744V15.08C27.8178 13.5013 27.5831 12.296 27.1138 11.464C26.6658 10.632 25.7164 10.216 24.2658 10.216C21.9191 10.216 20.7458 11.7947 20.7458 14.952V16.616C20.7458 20.008 21.9191 21.704 24.2658 21.704C25.7804 21.704 26.7724 21.1387 27.2418 20.008C27.6258 19.112 27.8178 18.024 27.8178 16.744ZM31.9778 15.784C31.9778 19.7307 31.2311 22.376 29.7378 23.72C28.4791 24.872 26.6551 25.448 24.2658 25.448C21.2151 25.448 19.1564 24.552 18.0898 22.76C17.0871 21.1173 16.5858 18.792 16.5858 15.784C16.5858 12.968 17.0871 10.76 18.0898 9.16C19.1991 7.368 21.2151 6.472 24.1378 6.472C27.0818 6.472 29.1191 7.26133 30.2498 8.84C31.4018 10.3973 31.9778 12.712 31.9778 15.784ZM45.1928 16.744V15.08C45.1928 13.5013 44.9581 12.296 44.4888 11.464C44.0408 10.632 43.0914 10.216 41.6408 10.216C39.2941 10.216 38.1208 11.7947 38.1208 14.952V16.616C38.1208 20.008 39.2941 21.704 41.6408 21.704C43.1554 21.704 44.1474 21.1387 44.6168 20.008C45.0008 19.112 45.1928 18.024 45.1928 16.744ZM49.3528 15.784C49.3528 19.7307 48.6061 22.376 47.1128 23.72C45.8541 24.872 44.0301 25.448 41.6408 25.448C38.5901 25.448 36.5314 24.552 35.4648 22.76C34.4621 21.1173 33.9608 18.792 33.9608 15.784C33.9608 12.968 34.4621 10.76 35.4648 9.16C36.5741 7.368 38.5901 6.472 41.5128 6.472C44.4568 6.472 46.4941 7.26133 47.6248 8.84C48.7768 10.3973 49.3528 12.712 49.3528 15.784ZM68.3918 25H63.3998L58.5998 18.536L56.7758 21.128V25H52.6158V0.935999H56.7758V16.136L62.5998 7.464H67.3038L61.3198 15.656L68.3918 25Z" fill="#3D3F40"/>
<path d="M88.1548 25H83.5148L82.2348 21.064H74.5868L73.3388 25H68.6988L75.9948 4.136C76.3148 3.41067 76.6668 2.90933 77.0508 2.632C77.4561 2.35467 77.9468 2.216 78.5228 2.216C79.0988 2.216 79.5574 2.344 79.8988 2.6C80.2614 2.856 80.5814 3.368 80.8588 4.136L88.1548 25ZM81.2108 17.32L78.5228 8.296L75.7068 17.32H81.2108ZM100.305 18.312L104.081 18.28C104.06 18.4507 104.038 18.76 104.017 19.208C103.996 19.656 103.974 19.9653 103.953 20.136C103.953 20.2853 103.932 20.5307 103.889 20.872C103.846 21.2133 103.793 21.4693 103.729 21.64C103.686 21.7893 103.622 21.992 103.537 22.248C103.153 23.3573 102.108 24.232 100.401 24.872C99.313 25.256 98.1717 25.448 96.977 25.448C95.8037 25.448 94.737 25.256 93.777 24.872C92.817 24.488 92.0597 23.9973 91.505 23.4C90.2463 22.0773 89.617 19.6027 89.617 15.976C89.617 12.328 90.2463 9.84267 91.505 8.52C92.0597 7.92267 92.817 7.432 93.777 7.048C94.737 6.664 95.8037 6.472 96.977 6.472C99.281 6.472 101.03 7.048 102.225 8.2C103.42 9.352 104.017 10.952 104.017 13H100.241C100.241 12.0613 100.006 11.368 99.537 10.92C99.0677 10.4507 98.193 10.216 96.913 10.216C95.6543 10.216 94.8117 10.6107 94.385 11.4C93.9797 12.1893 93.777 13.3733 93.777 14.952V16.616C93.777 19.1547 94.2677 20.712 95.249 21.288C95.697 21.5653 96.2837 21.704 97.009 21.704C97.7343 21.704 98.321 21.64 98.769 21.512C99.2383 21.3627 99.569 21.1173 99.761 20.776C99.9743 20.4347 100.113 20.104 100.177 19.784C100.241 19.4427 100.284 18.952 100.305 18.312ZM120.131 25H117.347L116.067 22.792L111.619 25.192C109.144 25.192 107.48 24.296 106.627 22.504C106.2 21.6293 105.901 20.6907 105.731 19.688C105.581 18.664 105.507 17.608 105.507 16.52C105.507 15.4107 105.517 14.6 105.539 14.088C105.56 13.5547 105.613 12.9467 105.699 12.264C105.784 11.56 105.901 10.9733 106.051 10.504C106.221 10.0347 106.456 9.55467 106.755 9.064C107.053 8.552 107.416 8.14667 107.843 7.848C108.803 7.18667 110.051 6.856 111.587 6.856H115.971L120.131 6.6V25ZM115.971 19.176V10.6H112.803C111.629 10.6 110.808 11.048 110.339 11.944C109.891 12.84 109.667 14.184 109.667 15.976C109.667 17.7467 109.88 18.9947 110.307 19.72C110.755 20.4453 111.587 20.808 112.803 20.808L115.971 19.176ZM134.345 6.792L133.193 10.888C132.873 10.76 132.51 10.696 132.105 10.696C131.038 10.696 129.726 11.1547 128.169 12.072V25H124.009V6.728H127.113L128.073 8.328L132.489 6.504C132.702 6.48267 132.99 6.472 133.353 6.472C133.715 6.472 134.046 6.57867 134.345 6.792ZM149.693 25H146.909L145.629 22.792L141.181 25.192C138.707 25.192 137.043 24.296 136.189 22.504C135.763 21.6293 135.464 20.6907 135.293 19.688C135.144 18.664 135.069 17.608 135.069 16.52C135.069 15.4107 135.08 14.6 135.101 14.088C135.123 13.5547 135.176 12.9467 135.261 12.264C135.347 11.56 135.464 10.9733 135.613 10.504C135.784 10.0347 136.019 9.55467 136.317 9.064C136.616 8.552 136.979 8.14667 137.405 7.848C138.365 7.18667 139.613 6.856 141.149 6.856H145.533L149.693 6.6V25ZM145.533 19.176V10.6H142.365C141.192 10.6 140.371 11.048 139.901 11.944C139.453 12.84 139.229 14.184 139.229 15.976C139.229 17.7467 139.443 18.9947 139.869 19.72C140.317 20.4453 141.149 20.808 142.365 20.808L145.533 19.176Z" fill="#0F84DE"/>
</svg>
